<svg width="220" height="58" viewBox="0 0 220 58" fill="none" xmlns="http://www.w3.org/2000/svg">
<g filter="url(#filter0_d)">
<path fill-rule="evenodd" clip-rule="evenodd" d="M4 44.0476V5.95238C4 2.67024 6.67028 0 9.95247 0H35.0004H42.1434H43.0005H99.287C103.216 0 106.43 3.21429 106.43 7.14286V42.8571C106.43 46.7857 103.216 50 99.287 50H43.0005H42.1434H35.0004H9.95247C6.67028 50 4 47.3298 4 44.0476ZM35.0004 31.9713C34.7825 37.3847 30.3244 41.7071 24.8574 41.7071C19.2514 41.7071 14.7061 37.1619 14.7061 31.556C14.7061 25.95 19.2514 21.4048 24.8574 21.4048C25.019 21.4048 25.1778 21.4158 25.3365 21.4269H25.3365C25.386 21.4304 25.4354 21.4338 25.4848 21.4369V26.4393C25.4314 26.4329 25.3782 26.4256 25.3251 26.4183L25.325 26.4183C25.1708 26.3973 25.0168 26.3762 24.8574 26.3762C21.9955 26.3762 19.6764 28.6952 19.6764 31.5571C19.6764 34.419 21.9955 36.7381 24.8574 36.7381C27.7194 36.7381 30.2468 34.4833 30.2468 31.6214C30.2468 31.5083 30.2968 8.29524 30.2968 8.29524H35.0004M67.1437 10.7143H74.2867V17.8571H67.1437V10.7143ZM67.1437 21.4286H74.2867V28.5714H67.1437V21.4286ZM56.4293 10.7143H63.5723V17.8571H56.4293V10.7143ZM56.4293 21.4286H63.5723V28.5714H56.4293V21.4286ZM52.8578 28.5714H45.7149V21.4286H52.8578V28.5714ZM52.8578 17.8571H45.7149V10.7143H52.8578V17.8571ZM81.4296 42.8571H60.0008C58.0365 42.8571 56.4293 41.25 56.4293 39.2857C56.4293 37.3214 58.0365 35.7143 60.0008 35.7143H81.4296C83.394 35.7143 85.0011 37.3214 85.0011 39.2857C85.0011 41.25 83.394 42.8571 81.4296 42.8571ZM85.0011 28.5714H77.8582V21.4286H85.0011V28.5714ZM85.0011 17.8571H77.8582V10.7143H85.0011V17.8571ZM95.7156 28.5714H88.5726V21.4286H95.7156V28.5714ZM95.7156 17.8571H88.5726V10.7143H95.7156V17.8571Z" fill="white"/>
</g>
<g filter="url(#filter1_d)">
<path d="M151.647 40.92H149.791V46H149.019V40.92H147.159V40.268H151.647V40.92ZM156.034 45.368L156.03 46H152.498V40.268H156.03V40.9H153.274V42.804H155.506V43.412H153.274V45.368H156.034ZM161.014 44.816C161.056 44.816 161.094 44.8333 161.126 44.868L161.434 45.2C161.199 45.472 160.914 45.684 160.578 45.836C160.244 45.988 159.84 46.064 159.366 46.064C158.955 46.064 158.582 45.9933 158.246 45.852C157.91 45.708 157.623 45.508 157.386 45.252C157.148 44.9933 156.964 44.684 156.834 44.324C156.703 43.964 156.638 43.568 156.638 43.136C156.638 42.704 156.706 42.308 156.842 41.948C156.978 41.588 157.168 41.2787 157.414 41.02C157.662 40.7613 157.958 40.5613 158.302 40.42C158.646 40.276 159.026 40.204 159.442 40.204C159.85 40.204 160.21 40.2693 160.522 40.4C160.834 40.5307 161.108 40.708 161.346 40.932L161.09 41.288C161.074 41.3147 161.052 41.3373 161.026 41.356C161.002 41.372 160.968 41.38 160.926 41.38C160.878 41.38 160.819 41.3547 160.75 41.304C160.68 41.2507 160.59 41.192 160.478 41.128C160.366 41.064 160.226 41.0067 160.058 40.956C159.89 40.9027 159.683 40.876 159.438 40.876C159.142 40.876 158.871 40.928 158.626 41.032C158.38 41.1333 158.168 41.2813 157.99 41.476C157.814 41.6707 157.676 41.908 157.578 42.188C157.479 42.468 157.43 42.784 157.43 43.136C157.43 43.4933 157.48 43.812 157.582 44.092C157.686 44.372 157.826 44.6093 158.002 44.804C158.18 44.996 158.39 45.1427 158.63 45.244C158.872 45.3453 159.134 45.396 159.414 45.396C159.584 45.396 159.738 45.3867 159.874 45.368C160.012 45.3467 160.139 45.3147 160.254 45.272C160.371 45.2293 160.479 45.176 160.578 45.112C160.679 45.0453 160.779 44.9667 160.878 44.876C160.923 44.836 160.968 44.816 161.014 44.816ZM165.586 45.348V46H162.334V40.268H163.106V45.348H165.586ZM169.487 43.872L168.587 41.54C168.56 41.4707 168.532 41.3907 168.503 41.3C168.474 41.2067 168.446 41.108 168.419 41.004C168.363 41.22 168.306 41.4 168.247 41.544L167.347 43.872H169.487ZM171.103 46H170.503C170.434 46 170.378 45.9827 170.335 45.948C170.292 45.9133 170.26 45.8693 170.239 45.816L169.703 44.432H167.131L166.595 45.816C166.579 45.864 166.548 45.9067 166.503 45.944C166.458 45.9813 166.402 46 166.335 46H165.735L168.027 40.268H168.811L171.103 46ZM176.825 43.136C176.825 43.5653 176.757 43.956 176.621 44.308C176.485 44.66 176.293 44.9613 176.045 45.212C175.797 45.4627 175.498 45.6573 175.149 45.796C174.802 45.932 174.418 46 173.997 46H171.857V40.268H173.997C174.418 40.268 174.802 40.3373 175.149 40.476C175.498 40.612 175.797 40.8067 176.045 41.06C176.293 41.3107 176.485 41.612 176.621 41.964C176.757 42.316 176.825 42.7067 176.825 43.136ZM176.029 43.136C176.029 42.784 175.981 42.4693 175.885 42.192C175.789 41.9147 175.653 41.68 175.477 41.488C175.301 41.296 175.088 41.1493 174.837 41.048C174.586 40.9467 174.306 40.896 173.997 40.896H172.633V45.372H173.997C174.306 45.372 174.586 45.3213 174.837 45.22C175.088 45.1187 175.301 44.9733 175.477 44.784C175.653 44.592 175.789 44.3573 175.885 44.08C175.981 43.8027 176.029 43.488 176.029 43.136ZM183.239 43.136C183.239 43.5653 183.171 43.96 183.035 44.32C182.899 44.6773 182.707 44.9853 182.459 45.244C182.211 45.5027 181.912 45.704 181.563 45.848C181.216 45.9893 180.832 46.06 180.411 46.06C179.99 46.06 179.606 45.9893 179.259 45.848C178.912 45.704 178.615 45.5027 178.367 45.244C178.119 44.9853 177.927 44.6773 177.791 44.32C177.655 43.96 177.587 43.5653 177.587 43.136C177.587 42.7067 177.655 42.3133 177.791 41.956C177.927 41.596 178.119 41.2867 178.367 41.028C178.615 40.7667 178.912 40.564 179.259 40.42C179.606 40.276 179.99 40.204 180.411 40.204C180.832 40.204 181.216 40.276 181.563 40.42C181.912 40.564 182.211 40.7667 182.459 41.028C182.707 41.2867 182.899 41.596 183.035 41.956C183.171 42.3133 183.239 42.7067 183.239 43.136ZM182.443 43.136C182.443 42.784 182.395 42.468 182.299 42.188C182.203 41.908 182.067 41.672 181.891 41.48C181.715 41.2853 181.502 41.136 181.251 41.032C181 40.928 180.72 40.876 180.411 40.876C180.104 40.876 179.826 40.928 179.575 41.032C179.324 41.136 179.11 41.2853 178.931 41.48C178.755 41.672 178.619 41.908 178.523 42.188C178.427 42.468 178.379 42.784 178.379 43.136C178.379 43.488 178.427 43.804 178.523 44.084C178.619 44.3613 178.755 44.5973 178.931 44.792C179.11 44.984 179.324 45.132 179.575 45.236C179.826 45.3373 180.104 45.388 180.411 45.388C180.72 45.388 181 45.3373 181.251 45.236C181.502 45.132 181.715 44.984 181.891 44.792C182.067 44.5973 182.203 44.3613 182.299 44.084C182.395 43.804 182.443 43.488 182.443 43.136ZM187.281 41.164C187.257 41.204 187.231 41.2347 187.201 41.256C187.175 41.2747 187.141 41.284 187.101 41.284C187.056 41.284 187.003 41.2613 186.941 41.216C186.88 41.1707 186.803 41.1213 186.709 41.068C186.619 41.012 186.508 40.9613 186.377 40.916C186.249 40.8707 186.093 40.848 185.909 40.848C185.736 40.848 185.583 40.872 185.449 40.92C185.319 40.9653 185.208 41.028 185.117 41.108C185.029 41.188 184.963 41.2827 184.917 41.392C184.872 41.4987 184.849 41.6147 184.849 41.74C184.849 41.9 184.888 42.0333 184.965 42.14C185.045 42.244 185.149 42.3333 185.277 42.408C185.408 42.4827 185.555 42.548 185.717 42.604C185.883 42.6573 186.051 42.7133 186.221 42.772C186.395 42.8307 186.563 42.8973 186.725 42.972C186.891 43.044 187.037 43.136 187.165 43.248C187.296 43.36 187.4 43.4973 187.477 43.66C187.557 43.8227 187.597 44.0227 187.597 44.26C187.597 44.5107 187.555 44.7467 187.469 44.968C187.384 45.1867 187.259 45.3773 187.093 45.54C186.931 45.7027 186.729 45.8307 186.489 45.924C186.252 46.0173 185.981 46.064 185.677 46.064C185.304 46.064 184.965 45.9973 184.661 45.864C184.357 45.728 184.097 45.5453 183.881 45.316L184.105 44.948C184.127 44.9187 184.152 44.8947 184.181 44.876C184.213 44.8547 184.248 44.844 184.285 44.844C184.32 44.844 184.359 44.8587 184.401 44.888C184.447 44.9147 184.497 44.9493 184.553 44.992C184.609 45.0347 184.673 45.0813 184.745 45.132C184.817 45.1827 184.899 45.2293 184.989 45.272C185.083 45.3147 185.188 45.3507 185.305 45.38C185.423 45.4067 185.555 45.42 185.701 45.42C185.885 45.42 186.049 45.3947 186.193 45.344C186.337 45.2933 186.459 45.2227 186.557 45.132C186.659 45.0387 186.736 44.928 186.789 44.8C186.843 44.672 186.869 44.5293 186.869 44.372C186.869 44.1987 186.829 44.0573 186.749 43.948C186.672 43.836 186.569 43.7427 186.441 43.668C186.313 43.5933 186.167 43.5307 186.001 43.48C185.836 43.4267 185.668 43.3733 185.497 43.32C185.327 43.264 185.159 43.2 184.993 43.128C184.828 43.056 184.681 42.9627 184.553 42.848C184.425 42.7333 184.321 42.5907 184.241 42.42C184.164 42.2467 184.125 42.0333 184.125 41.78C184.125 41.5773 184.164 41.3813 184.241 41.192C184.321 41.0027 184.436 40.8347 184.585 40.688C184.737 40.5413 184.923 40.424 185.141 40.336C185.363 40.248 185.616 40.204 185.901 40.204C186.221 40.204 186.512 40.2547 186.773 40.356C187.037 40.4573 187.269 40.604 187.469 40.796L187.281 41.164Z" fill="white"/>
<path d="M126.36 16.8H120.9V13.02H136.14V16.8H130.74V33H126.36V16.8ZM143.888 33.45C141.388 33.45 139.418 32.73 137.978 31.29C136.558 29.85 135.848 27.85 135.848 25.29C135.848 23.63 136.158 22.19 136.778 20.97C137.398 19.73 138.268 18.78 139.388 18.12C140.528 17.46 141.858 17.13 143.378 17.13C145.618 17.13 147.338 17.85 148.538 19.29C149.738 20.73 150.338 22.81 150.338 25.53C150.338 25.99 150.328 26.33 150.308 26.55H140.108C140.308 27.61 140.768 28.42 141.488 28.98C142.208 29.52 143.178 29.79 144.398 29.79C145.138 29.79 145.908 29.7 146.708 29.52C147.508 29.32 148.208 29.06 148.808 28.74L149.498 32.13C148.698 32.55 147.808 32.87 146.828 33.09C145.868 33.33 144.888 33.45 143.888 33.45ZM146.288 23.37C146.228 22.51 145.928 21.83 145.388 21.33C144.848 20.81 144.128 20.55 143.228 20.55C142.368 20.55 141.658 20.8 141.098 21.3C140.558 21.8 140.218 22.49 140.078 23.37H146.288ZM160.849 33.45C158.289 33.45 156.299 32.77 154.879 31.41C153.479 30.05 152.779 28.13 152.779 25.65C152.779 23.97 153.109 22.49 153.769 21.21C154.429 19.91 155.359 18.91 156.559 18.21C157.759 17.49 159.149 17.13 160.729 17.13C161.469 17.13 162.239 17.22 163.039 17.4C163.859 17.56 164.489 17.75 164.929 17.97L164.119 21.54C163.659 21.32 163.149 21.15 162.589 21.03C162.049 20.89 161.539 20.82 161.059 20.82C159.819 20.82 158.819 21.24 158.059 22.08C157.319 22.92 156.949 24.03 156.949 25.41C156.949 26.81 157.329 27.89 158.089 28.65C158.869 29.41 159.969 29.79 161.389 29.79C162.329 29.79 163.339 29.61 164.419 29.25L165.049 32.67C163.749 33.19 162.349 33.45 160.849 33.45ZM172.473 16.8H167.013V13.02H182.253V16.8H176.853V33H172.473V16.8ZM189.852 33.45C188.292 33.45 186.912 33.11 185.712 32.43C184.532 31.75 183.612 30.8 182.952 29.58C182.292 28.34 181.962 26.91 181.962 25.29C181.962 23.67 182.282 22.25 182.922 21.03C183.582 19.79 184.502 18.83 185.682 18.15C186.882 17.47 188.262 17.13 189.822 17.13C191.382 17.13 192.752 17.47 193.932 18.15C195.132 18.81 196.052 19.75 196.692 20.97C197.352 22.19 197.682 23.6 197.682 25.2C197.682 26.82 197.352 28.26 196.692 29.52C196.052 30.76 195.132 31.73 193.932 32.43C192.752 33.11 191.392 33.45 189.852 33.45ZM189.822 29.79C190.902 29.79 191.762 29.38 192.402 28.56C193.062 27.72 193.392 26.62 193.392 25.26C193.392 23.9 193.062 22.82 192.402 22.02C191.762 21.2 190.902 20.79 189.822 20.79C188.742 20.79 187.872 21.2 187.212 22.02C186.572 22.82 186.252 23.9 186.252 25.26C186.252 26.62 186.572 27.72 187.212 28.56C187.872 29.38 188.742 29.79 189.822 29.79ZM205.047 26.28V33H200.817V11.07H205.047V23.19L209.877 17.55H214.887L208.707 24.48L215.217 32.82L210.627 33.45L205.047 26.28Z" fill="white"/>
</g>
<defs>
<filter id="filter0_d" x="0" y="0" width="110.43" height="58" filterUnits="userSpaceOnUse" color-interpolation-filters="sRGB">
<feFlood flood-opacity="0" result="BackgroundImageFix"/>
<feColorMatrix in="SourceAlpha" type="matrix" values="0 0 0 0 0 0 0 0 0 0 0 0 0 0 0 0 0 0 127 0" result="hardAlpha"/>
<feOffset dy="4"/>
<feGaussianBlur stdDeviation="2"/>
<feComposite in2="hardAlpha" operator="out"/>
<feColorMatrix type="matrix" values="0 0 0 0 0 0 0 0 0 0 0 0 0 0 0 0 0 0 0.25 0"/>
<feBlend mode="normal" in2="BackgroundImageFix" result="effect1_dropShadow"/>
<feBlend mode="normal" in="SourceGraphic" in2="effect1_dropShadow" result="shape"/>
</filter>
<filter id="filter1_d" x="116.9" y="11.07" width="102.317" height="42.994" filterUnits="userSpaceOnUse" color-interpolation-filters="sRGB">
<feFlood flood-opacity="0" result="BackgroundImageFix"/>
<feColorMatrix in="SourceAlpha" type="matrix" values="0 0 0 0 0 0 0 0 0 0 0 0 0 0 0 0 0 0 127 0" result="hardAlpha"/>
<feOffset dy="4"/>
<feGaussianBlur stdDeviation="2"/>
<feComposite in2="hardAlpha" operator="out"/>
<feColorMatrix type="matrix" values="0 0 0 0 0 0 0 0 0 0 0 0 0 0 0 0 0 0 0.25 0"/>
<feBlend mode="normal" in2="BackgroundImageFix" result="effect1_dropShadow"/>
<feBlend mode="normal" in="SourceGraphic" in2="effect1_dropShadow" result="shape"/>
</filter>
</defs>
</svg>
