<svg width="308" height="72" viewBox="0 0 308 72" fill="none" xmlns="http://www.w3.org/2000/svg">
<rect width="308" height="72" fill="url(#paint0_linear)"/>
<g filter="url(#filter0_d)">
<path fill-rule="evenodd" clip-rule="evenodd" d="M47 55.0476V16.9524C47 13.6702 49.6703 11 52.9525 11H78.0004H85.1434H86.0005H142.287C146.216 11 149.43 14.2143 149.43 18.1429V53.8571C149.43 57.7857 146.216 61 142.287 61H86.0005H85.1434H78.0004H52.9525C49.6703 61 47 58.3298 47 55.0476ZM78.0004 42.9713C77.7825 48.3847 73.3244 52.7071 67.8574 52.7071C62.2514 52.7071 57.7061 48.1619 57.7061 42.556C57.7061 36.95 62.2514 32.4048 67.8574 32.4048C68.019 32.4048 68.1778 32.4158 68.3365 32.4269H68.3365C68.386 32.4304 68.4354 32.4338 68.4848 32.4369V37.4393C68.4314 37.4329 68.3782 37.4256 68.3251 37.4183L68.325 37.4183C68.1708 37.3973 68.0168 37.3762 67.8574 37.3762C64.9955 37.3762 62.6764 39.6952 62.6764 42.5571C62.6764 45.419 64.9955 47.7381 67.8574 47.7381C70.7194 47.7381 73.2468 45.4833 73.2468 42.6214C73.2468 42.5083 73.2968 19.2952 73.2968 19.2952H78.0004M110.144 21.7143H117.287V28.8571H110.144V21.7143ZM110.144 32.4286H117.287V39.5714H110.144V32.4286ZM99.4293 21.7143H106.572V28.8571H99.4293V21.7143ZM99.4293 32.4286H106.572V39.5714H99.4293V32.4286ZM95.8578 39.5714H88.7149V32.4286H95.8578V39.5714ZM95.8578 28.8571H88.7149V21.7143H95.8578V28.8571ZM124.43 53.8571H103.001C101.036 53.8571 99.4293 52.25 99.4293 50.2857C99.4293 48.3214 101.036 46.7143 103.001 46.7143H124.43C126.394 46.7143 128.001 48.3214 128.001 50.2857C128.001 52.25 126.394 53.8571 124.43 53.8571ZM128.001 39.5714H120.858V32.4286H128.001V39.5714ZM128.001 28.8571H120.858V21.7143H128.001V28.8571ZM138.716 39.5714H131.573V32.4286H138.716V39.5714ZM138.716 28.8571H131.573V21.7143H138.716V28.8571Z" fill="white"/>
</g>
<g filter="url(#filter1_d)">
<path d="M194.647 51.92H192.791V57H192.019V51.92H190.159V51.268H194.647V51.92ZM199.034 56.368L199.03 57H195.498V51.268H199.03V51.9H196.274V53.804H198.506V54.412H196.274V56.368H199.034ZM204.014 55.816C204.056 55.816 204.094 55.8333 204.126 55.868L204.434 56.2C204.199 56.472 203.914 56.684 203.578 56.836C203.244 56.988 202.84 57.064 202.366 57.064C201.955 57.064 201.582 56.9933 201.246 56.852C200.91 56.708 200.623 56.508 200.386 56.252C200.148 55.9933 199.964 55.684 199.834 55.324C199.703 54.964 199.638 54.568 199.638 54.136C199.638 53.704 199.706 53.308 199.842 52.948C199.978 52.588 200.168 52.2787 200.414 52.02C200.662 51.7613 200.958 51.5613 201.302 51.42C201.646 51.276 202.026 51.204 202.442 51.204C202.85 51.204 203.21 51.2693 203.522 51.4C203.834 51.5307 204.108 51.708 204.346 51.932L204.09 52.288C204.074 52.3147 204.052 52.3373 204.026 52.356C204.002 52.372 203.968 52.38 203.926 52.38C203.878 52.38 203.819 52.3547 203.75 52.304C203.68 52.2507 203.59 52.192 203.478 52.128C203.366 52.064 203.226 52.0067 203.058 51.956C202.89 51.9027 202.683 51.876 202.438 51.876C202.142 51.876 201.871 51.928 201.626 52.032C201.38 52.1333 201.168 52.2813 200.99 52.476C200.814 52.6707 200.676 52.908 200.578 53.188C200.479 53.468 200.43 53.784 200.43 54.136C200.43 54.4933 200.48 54.812 200.582 55.092C200.686 55.372 200.826 55.6093 201.002 55.804C201.18 55.996 201.39 56.1427 201.63 56.244C201.872 56.3453 202.134 56.396 202.414 56.396C202.584 56.396 202.738 56.3867 202.874 56.368C203.012 56.3467 203.139 56.3147 203.254 56.272C203.371 56.2293 203.479 56.176 203.578 56.112C203.679 56.0453 203.779 55.9667 203.878 55.876C203.923 55.836 203.968 55.816 204.014 55.816ZM208.586 56.348V57H205.334V51.268H206.106V56.348H208.586ZM212.487 54.872L211.587 52.54C211.56 52.4707 211.532 52.3907 211.503 52.3C211.474 52.2067 211.446 52.108 211.419 52.004C211.363 52.22 211.306 52.4 211.247 52.544L210.347 54.872H212.487ZM214.103 57H213.503C213.434 57 213.378 56.9827 213.335 56.948C213.292 56.9133 213.26 56.8693 213.239 56.816L212.703 55.432H210.131L209.595 56.816C209.579 56.864 209.548 56.9067 209.503 56.944C209.458 56.9813 209.402 57 209.335 57H208.735L211.027 51.268H211.811L214.103 57ZM219.825 54.136C219.825 54.5653 219.757 54.956 219.621 55.308C219.485 55.66 219.293 55.9613 219.045 56.212C218.797 56.4627 218.498 56.6573 218.149 56.796C217.802 56.932 217.418 57 216.997 57H214.857V51.268H216.997C217.418 51.268 217.802 51.3373 218.149 51.476C218.498 51.612 218.797 51.8067 219.045 52.06C219.293 52.3107 219.485 52.612 219.621 52.964C219.757 53.316 219.825 53.7067 219.825 54.136ZM219.029 54.136C219.029 53.784 218.981 53.4693 218.885 53.192C218.789 52.9147 218.653 52.68 218.477 52.488C218.301 52.296 218.088 52.1493 217.837 52.048C217.586 51.9467 217.306 51.896 216.997 51.896H215.633V56.372H216.997C217.306 56.372 217.586 56.3213 217.837 56.22C218.088 56.1187 218.301 55.9733 218.477 55.784C218.653 55.592 218.789 55.3573 218.885 55.08C218.981 54.8027 219.029 54.488 219.029 54.136ZM226.239 54.136C226.239 54.5653 226.171 54.96 226.035 55.32C225.899 55.6773 225.707 55.9853 225.459 56.244C225.211 56.5027 224.912 56.704 224.563 56.848C224.216 56.9893 223.832 57.06 223.411 57.06C222.99 57.06 222.606 56.9893 222.259 56.848C221.912 56.704 221.615 56.5027 221.367 56.244C221.119 55.9853 220.927 55.6773 220.791 55.32C220.655 54.96 220.587 54.5653 220.587 54.136C220.587 53.7067 220.655 53.3133 220.791 52.956C220.927 52.596 221.119 52.2867 221.367 52.028C221.615 51.7667 221.912 51.564 222.259 51.42C222.606 51.276 222.99 51.204 223.411 51.204C223.832 51.204 224.216 51.276 224.563 51.42C224.912 51.564 225.211 51.7667 225.459 52.028C225.707 52.2867 225.899 52.596 226.035 52.956C226.171 53.3133 226.239 53.7067 226.239 54.136ZM225.443 54.136C225.443 53.784 225.395 53.468 225.299 53.188C225.203 52.908 225.067 52.672 224.891 52.48C224.715 52.2853 224.502 52.136 224.251 52.032C224 51.928 223.72 51.876 223.411 51.876C223.104 51.876 222.826 51.928 222.575 52.032C222.324 52.136 222.11 52.2853 221.931 52.48C221.755 52.672 221.619 52.908 221.523 53.188C221.427 53.468 221.379 53.784 221.379 54.136C221.379 54.488 221.427 54.804 221.523 55.084C221.619 55.3613 221.755 55.5973 221.931 55.792C222.11 55.984 222.324 56.132 222.575 56.236C222.826 56.3373 223.104 56.388 223.411 56.388C223.72 56.388 224 56.3373 224.251 56.236C224.502 56.132 224.715 55.984 224.891 55.792C225.067 55.5973 225.203 55.3613 225.299 55.084C225.395 54.804 225.443 54.488 225.443 54.136ZM230.281 52.164C230.257 52.204 230.231 52.2347 230.201 52.256C230.175 52.2747 230.141 52.284 230.101 52.284C230.056 52.284 230.003 52.2613 229.941 52.216C229.88 52.1707 229.803 52.1213 229.709 52.068C229.619 52.012 229.508 51.9613 229.377 51.916C229.249 51.8707 229.093 51.848 228.909 51.848C228.736 51.848 228.583 51.872 228.449 51.92C228.319 51.9653 228.208 52.028 228.117 52.108C228.029 52.188 227.963 52.2827 227.917 52.392C227.872 52.4987 227.849 52.6147 227.849 52.74C227.849 52.9 227.888 53.0333 227.965 53.14C228.045 53.244 228.149 53.3333 228.277 53.408C228.408 53.4827 228.555 53.548 228.717 53.604C228.883 53.6573 229.051 53.7133 229.221 53.772C229.395 53.8307 229.563 53.8973 229.725 53.972C229.891 54.044 230.037 54.136 230.165 54.248C230.296 54.36 230.4 54.4973 230.477 54.66C230.557 54.8227 230.597 55.0227 230.597 55.26C230.597 55.5107 230.555 55.7467 230.469 55.968C230.384 56.1867 230.259 56.3773 230.093 56.54C229.931 56.7027 229.729 56.8307 229.489 56.924C229.252 57.0173 228.981 57.064 228.677 57.064C228.304 57.064 227.965 56.9973 227.661 56.864C227.357 56.728 227.097 56.5453 226.881 56.316L227.105 55.948C227.127 55.9187 227.152 55.8947 227.181 55.876C227.213 55.8547 227.248 55.844 227.285 55.844C227.32 55.844 227.359 55.8587 227.401 55.888C227.447 55.9147 227.497 55.9493 227.553 55.992C227.609 56.0347 227.673 56.0813 227.745 56.132C227.817 56.1827 227.899 56.2293 227.989 56.272C228.083 56.3147 228.188 56.3507 228.305 56.38C228.423 56.4067 228.555 56.42 228.701 56.42C228.885 56.42 229.049 56.3947 229.193 56.344C229.337 56.2933 229.459 56.2227 229.557 56.132C229.659 56.0387 229.736 55.928 229.789 55.8C229.843 55.672 229.869 55.5293 229.869 55.372C229.869 55.1987 229.829 55.0573 229.749 54.948C229.672 54.836 229.569 54.7427 229.441 54.668C229.313 54.5933 229.167 54.5307 229.001 54.48C228.836 54.4267 228.668 54.3733 228.497 54.32C228.327 54.264 228.159 54.2 227.993 54.128C227.828 54.056 227.681 53.9627 227.553 53.848C227.425 53.7333 227.321 53.5907 227.241 53.42C227.164 53.2467 227.125 53.0333 227.125 52.78C227.125 52.5773 227.164 52.3813 227.241 52.192C227.321 52.0027 227.436 51.8347 227.585 51.688C227.737 51.5413 227.923 51.424 228.141 51.336C228.363 51.248 228.616 51.204 228.901 51.204C229.221 51.204 229.512 51.2547 229.773 51.356C230.037 51.4573 230.269 51.604 230.469 51.796L230.281 52.164Z" fill="white"/>
<path d="M169.36 27.8H163.9V24.02H179.14V27.8H173.74V44H169.36V27.8ZM186.888 44.45C184.388 44.45 182.418 43.73 180.978 42.29C179.558 40.85 178.848 38.85 178.848 36.29C178.848 34.63 179.158 33.19 179.778 31.97C180.398 30.73 181.268 29.78 182.388 29.12C183.528 28.46 184.858 28.13 186.378 28.13C188.618 28.13 190.338 28.85 191.538 30.29C192.738 31.73 193.338 33.81 193.338 36.53C193.338 36.99 193.328 37.33 193.308 37.55H183.108C183.308 38.61 183.768 39.42 184.488 39.98C185.208 40.52 186.178 40.79 187.398 40.79C188.138 40.79 188.908 40.7 189.708 40.52C190.508 40.32 191.208 40.06 191.808 39.74L192.498 43.13C191.698 43.55 190.808 43.87 189.828 44.09C188.868 44.33 187.888 44.45 186.888 44.45ZM189.288 34.37C189.228 33.51 188.928 32.83 188.388 32.33C187.848 31.81 187.128 31.55 186.228 31.55C185.368 31.55 184.658 31.8 184.098 32.3C183.558 32.8 183.218 33.49 183.078 34.37H189.288ZM203.849 44.45C201.289 44.45 199.299 43.77 197.879 42.41C196.479 41.05 195.779 39.13 195.779 36.65C195.779 34.97 196.109 33.49 196.769 32.21C197.429 30.91 198.359 29.91 199.559 29.21C200.759 28.49 202.149 28.13 203.729 28.13C204.469 28.13 205.239 28.22 206.039 28.4C206.859 28.56 207.489 28.75 207.929 28.97L207.119 32.54C206.659 32.32 206.149 32.15 205.589 32.03C205.049 31.89 204.539 31.82 204.059 31.82C202.819 31.82 201.819 32.24 201.059 33.08C200.319 33.92 199.949 35.03 199.949 36.41C199.949 37.81 200.329 38.89 201.089 39.65C201.869 40.41 202.969 40.79 204.389 40.79C205.329 40.79 206.339 40.61 207.419 40.25L208.049 43.67C206.749 44.19 205.349 44.45 203.849 44.45ZM215.473 27.8H210.013V24.02H225.253V27.8H219.853V44H215.473V27.8ZM232.852 44.45C231.292 44.45 229.912 44.11 228.712 43.43C227.532 42.75 226.612 41.8 225.952 40.58C225.292 39.34 224.962 37.91 224.962 36.29C224.962 34.67 225.282 33.25 225.922 32.03C226.582 30.79 227.502 29.83 228.682 29.15C229.882 28.47 231.262 28.13 232.822 28.13C234.382 28.13 235.752 28.47 236.932 29.15C238.132 29.81 239.052 30.75 239.692 31.97C240.352 33.19 240.682 34.6 240.682 36.2C240.682 37.82 240.352 39.26 239.692 40.52C239.052 41.76 238.132 42.73 236.932 43.43C235.752 44.11 234.392 44.45 232.852 44.45ZM232.822 40.79C233.902 40.79 234.762 40.38 235.402 39.56C236.062 38.72 236.392 37.62 236.392 36.26C236.392 34.9 236.062 33.82 235.402 33.02C234.762 32.2 233.902 31.79 232.822 31.79C231.742 31.79 230.872 32.2 230.212 33.02C229.572 33.82 229.252 34.9 229.252 36.26C229.252 37.62 229.572 38.72 230.212 39.56C230.872 40.38 231.742 40.79 232.822 40.79ZM248.047 37.28V44H243.817V22.07H248.047V34.19L252.877 28.55H257.887L251.707 35.48L258.217 43.82L253.627 44.45L248.047 37.28Z" fill="white"/>
</g>
<defs>
<filter id="filter0_d" x="43" y="11" width="110.43" height="58" filterUnits="userSpaceOnUse" color-interpolation-filters="sRGB">
<feFlood flood-opacity="0" result="BackgroundImageFix"/>
<feColorMatrix in="SourceAlpha" type="matrix" values="0 0 0 0 0 0 0 0 0 0 0 0 0 0 0 0 0 0 127 0" result="hardAlpha"/>
<feOffset dy="4"/>
<feGaussianBlur stdDeviation="2"/>
<feComposite in2="hardAlpha" operator="out"/>
<feColorMatrix type="matrix" values="0 0 0 0 0 0 0 0 0 0 0 0 0 0 0 0 0 0 0.25 0"/>
<feBlend mode="normal" in2="BackgroundImageFix" result="effect1_dropShadow"/>
<feBlend mode="normal" in="SourceGraphic" in2="effect1_dropShadow" result="shape"/>
</filter>
<filter id="filter1_d" x="159.9" y="22.07" width="102.317" height="42.994" filterUnits="userSpaceOnUse" color-interpolation-filters="sRGB">
<feFlood flood-opacity="0" result="BackgroundImageFix"/>
<feColorMatrix in="SourceAlpha" type="matrix" values="0 0 0 0 0 0 0 0 0 0 0 0 0 0 0 0 0 0 127 0" result="hardAlpha"/>
<feOffset dy="4"/>
<feGaussianBlur stdDeviation="2"/>
<feComposite in2="hardAlpha" operator="out"/>
<feColorMatrix type="matrix" values="0 0 0 0 0 0 0 0 0 0 0 0 0 0 0 0 0 0 0.25 0"/>
<feBlend mode="normal" in2="BackgroundImageFix" result="effect1_dropShadow"/>
<feBlend mode="normal" in="SourceGraphic" in2="effect1_dropShadow" result="shape"/>
</filter>
<linearGradient id="paint0_linear" x1="0" y1="0" x2="185.747" y2="190.933" gradientUnits="userSpaceOnUse">
<stop stop-color="#69C9D0"/>
<stop offset="0.505208" stop-color="#E088B6"/>
<stop offset="0.9999" stop-color="#EE1D52"/>
</linearGradient>
</defs>
</svg>
