<svg width="130" height="130" viewBox="0 0 130 130" fill="none" xmlns="http://www.w3.org/2000/svg">
<rect width="130" height="130" rx="65" fill="white"/>
<path fill-rule="evenodd" clip-rule="evenodd" d="M10 0C4.47715 0 0 4.47715 0 10V120C0 125.523 4.47715 130 10 130H120C125.523 130 130 125.523 130 120V10C130 4.47715 125.523 0 120 0H10ZM121 43H9V92H121V43Z" fill="#010101"/>
<mask id="mask0" mask-type="alpha" maskUnits="userSpaceOnUse" x="0" y="33" width="40" height="64">
<rect x="0.428528" y="33.3752" width="39.2148" height="63.2497" fill="#C4C4C4"/>
</mask>
<g mask="url(#mask0)">
<path d="M56.1485 33.3752H7.95825C3.80636 33.3752 0.428528 36.753 0.428528 40.9049V89.0951C0.428528 93.247 3.80636 96.6248 7.95825 96.6248H56.1485C60.3004 96.6248 63.6782 93.247 63.6782 89.0951V40.9049C63.6782 36.753 60.3004 33.3752 56.1485 33.3752ZM50.1337 60.9686C49.7919 61.0002 49.4455 61.0213 49.0946 61.0213C45.1445 61.0213 41.6733 58.9898 39.6539 55.9192C39.6539 63.9745 39.6539 73.1396 39.6539 73.2932C39.6539 80.3847 33.9042 86.1344 26.8127 86.1344C19.7212 86.1344 13.9715 80.3847 13.9715 73.2932C13.9715 66.2017 19.7212 60.452 26.8127 60.452C27.0807 60.452 27.3428 60.4761 27.6063 60.4927V66.8207C27.3428 66.7891 27.0837 66.7409 26.8127 66.7409C23.1924 66.7409 20.2588 69.6745 20.2588 73.2947C20.2588 76.915 23.1924 79.8486 26.8127 79.8486C30.433 79.8486 33.6301 76.9964 33.6301 73.3761C33.6301 73.233 33.6933 43.8686 33.6933 43.8686H39.7412C40.3105 49.2764 44.6762 53.5443 50.1337 53.9358V60.9686Z" fill="#010101"/>
</g>
<rect x="39.6433" y="33.3752" width="10.1199" height="63.2497" fill="#010101"/>
<path d="M120.964 33.3752H48.679C43.7094 33.3752 39.6885 37.4412 39.6885 42.4108L39.6433 87.5892C39.6433 92.5588 43.7094 96.6248 48.679 96.6248H120.964C125.934 96.6248 130 92.5588 130 87.5892V42.4108C130 37.4412 125.934 33.3752 120.964 33.3752ZM80.3038 46.9287H89.3395V55.9643H80.3038V46.9287ZM80.3038 60.4822H89.3395V69.5178H80.3038V60.4822ZM66.7503 46.9287H75.786V55.9643H66.7503V46.9287ZM66.7503 60.4822H75.786V69.5178H66.7503V60.4822ZM62.2325 69.5178H53.1968V60.4822H62.2325V69.5178ZM62.2325 55.9643H53.1968V46.9287H62.2325V55.9643ZM98.3751 87.5892H71.2681C68.7833 87.5892 66.7503 85.5561 66.7503 83.0713C66.7503 80.5865 68.7833 78.5535 71.2681 78.5535H98.3751C100.86 78.5535 102.893 80.5865 102.893 83.0713C102.893 85.5561 100.86 87.5892 98.3751 87.5892ZM102.893 69.5178H93.8573V60.4822H102.893V69.5178ZM102.893 55.9643H93.8573V46.9287H102.893V55.9643ZM116.446 69.5178H107.411V60.4822H116.446V69.5178ZM116.446 55.9643H107.411V46.9287H116.446V55.9643Z" fill="#010101"/>
</svg>
