<svg width="231" height="54" viewBox="0 0 231 54" fill="none" xmlns="http://www.w3.org/2000/svg">
<path fill-rule="evenodd" clip-rule="evenodd" d="M0 44.0476V5.95238C0 2.67024 2.67028 0 5.95247 0H31.0004H38.1434H39.0005H95.287C99.2157 0 102.43 3.21429 102.43 7.14286V42.8571C102.43 46.7857 99.2157 50 95.287 50H39.0005H38.1434H31.0004H5.95247C2.67028 50 0 47.3298 0 44.0476ZM31.0004 31.9713C30.7825 37.3847 26.3244 41.7071 20.8574 41.7071C15.2514 41.7071 10.7061 37.1619 10.7061 31.556C10.7061 25.95 15.2514 21.4048 20.8574 21.4048C21.019 21.4048 21.1778 21.4158 21.3365 21.4269H21.3365C21.386 21.4304 21.4354 21.4338 21.4848 21.4369V26.4393C21.4314 26.4329 21.3782 26.4256 21.3251 26.4183L21.325 26.4183C21.1708 26.3973 21.0168 26.3762 20.8574 26.3762C17.9955 26.3762 15.6764 28.6952 15.6764 31.5571C15.6764 34.419 17.9955 36.7381 20.8574 36.7381C23.7194 36.7381 26.2468 34.4833 26.2468 31.6214C26.2468 31.5083 26.2968 8.29524 26.2968 8.29524H31.0004M63.1437 10.7143H70.2867V17.8571H63.1437V10.7143ZM63.1437 21.4286H70.2867V28.5714H63.1437V21.4286ZM52.4293 10.7143H59.5723V17.8571H52.4293V10.7143ZM52.4293 21.4286H59.5723V28.5714H52.4293V21.4286ZM48.8578 28.5714H41.7149V21.4286H48.8578V28.5714ZM48.8578 17.8571H41.7149V10.7143H48.8578V17.8571ZM77.4296 42.8571H56.0008C54.0365 42.8571 52.4293 41.25 52.4293 39.2857C52.4293 37.3214 54.0365 35.7143 56.0008 35.7143H77.4296C79.394 35.7143 81.0011 37.3214 81.0011 39.2857C81.0011 41.25 79.394 42.8571 77.4296 42.8571ZM81.0011 28.5714H73.8582V21.4286H81.0011V28.5714ZM81.0011 17.8571H73.8582V10.7143H81.0011V17.8571ZM91.7156 28.5714H84.5726V21.4286H91.7156V28.5714ZM91.7156 17.8571H84.5726V10.7143H91.7156V17.8571Z" fill="#010101"/>
<path d="M123.632 19.56H117.08V15.024H135.368V19.56H128.888V39H123.632V19.56ZM144.666 39.54C141.666 39.54 139.302 38.676 137.574 36.948C135.87 35.22 135.018 32.82 135.018 29.748C135.018 27.756 135.39 26.028 136.134 24.564C136.878 23.076 137.922 21.936 139.266 21.144C140.634 20.352 142.23 19.956 144.054 19.956C146.742 19.956 148.806 20.82 150.246 22.548C151.686 24.276 152.406 26.772 152.406 30.036C152.406 30.588 152.394 30.996 152.37 31.26H140.13C140.37 32.532 140.922 33.504 141.786 34.176C142.65 34.824 143.814 35.148 145.278 35.148C146.166 35.148 147.09 35.04 148.05 34.824C149.01 34.584 149.85 34.272 150.57 33.888L151.398 37.956C150.438 38.46 149.37 38.844 148.194 39.108C147.042 39.396 145.866 39.54 144.666 39.54ZM147.546 27.444C147.474 26.412 147.114 25.596 146.466 24.996C145.818 24.372 144.954 24.06 143.874 24.06C142.842 24.06 141.99 24.36 141.318 24.96C140.67 25.56 140.262 26.388 140.094 27.444H147.546ZM165.019 39.54C161.947 39.54 159.559 38.724 157.855 37.092C156.175 35.46 155.335 33.156 155.335 30.18C155.335 28.164 155.731 26.388 156.523 24.852C157.315 23.292 158.431 22.092 159.871 21.252C161.311 20.388 162.979 19.956 164.875 19.956C165.763 19.956 166.687 20.064 167.647 20.28C168.631 20.472 169.387 20.7 169.915 20.964L168.943 25.248C168.391 24.984 167.779 24.78 167.107 24.636C166.459 24.468 165.847 24.384 165.271 24.384C163.783 24.384 162.583 24.888 161.671 25.896C160.783 26.904 160.339 28.236 160.339 29.892C160.339 31.572 160.795 32.868 161.707 33.78C162.643 34.692 163.963 35.148 165.667 35.148C166.795 35.148 168.007 34.932 169.303 34.5L170.059 38.604C168.499 39.228 166.819 39.54 165.019 39.54ZM178.968 19.56H172.416V15.024H190.704V19.56H184.224V39H178.968V19.56ZM199.822 39.54C197.95 39.54 196.294 39.132 194.854 38.316C193.438 37.5 192.334 36.36 191.542 34.896C190.75 33.408 190.354 31.692 190.354 29.748C190.354 27.804 190.738 26.1 191.506 24.636C192.298 23.148 193.402 21.996 194.818 21.18C196.258 20.364 197.914 19.956 199.786 19.956C201.658 19.956 203.302 20.364 204.718 21.18C206.158 21.972 207.262 23.1 208.03 24.564C208.822 26.028 209.218 27.72 209.218 29.64C209.218 31.584 208.822 33.312 208.03 34.824C207.262 36.312 206.158 37.476 204.718 38.316C203.302 39.132 201.67 39.54 199.822 39.54ZM199.786 35.148C201.082 35.148 202.114 34.656 202.882 33.672C203.674 32.664 204.07 31.344 204.07 29.712C204.07 28.08 203.674 26.784 202.882 25.824C202.114 24.84 201.082 24.348 199.786 24.348C198.49 24.348 197.446 24.84 196.654 25.824C195.886 26.784 195.502 28.08 195.502 29.712C195.502 31.344 195.886 32.664 196.654 33.672C197.446 34.656 198.49 35.148 199.786 35.148ZM218.057 30.936V39H212.981V12.684H218.057V27.228L223.853 20.46H229.865L222.449 28.776L230.261 38.784L224.753 39.54L218.057 30.936Z" fill="#010101"/>
</svg>
